<?xml version="1.0" encoding="UTF-8" standalone="no"?>
<svg
   width="16"
   height="16"
   fill="currentColor"
   class="bi bi-postcard"
   viewBox="0 0 16 16"
   version="1.1"
   id="svg1"
   sodipodi:docname="postcard.svg"
   inkscape:version="1.3.2 (091e20e, 2023-11-25, custom)"
   xmlns:inkscape="http://www.inkscape.org/namespaces/inkscape"
   xmlns:sodipodi="http://sodipodi.sourceforge.net/DTD/sodipodi-0.dtd"
   xmlns="http://www.w3.org/2000/svg"
   xmlns:svg="http://www.w3.org/2000/svg">
  <defs
     id="defs1" />
  <sodipodi:namedview
     id="namedview1"
     pagecolor="#ffffff"
     bordercolor="#000000"
     borderopacity="0.25"
     inkscape:showpageshadow="2"
     inkscape:pageopacity="0.0"
     inkscape:pagecheckerboard="0"
     inkscape:deskcolor="#d1d1d1"
     inkscape:zoom="50.8125"
     inkscape:cx="8"
     inkscape:cy="8"
     inkscape:window-width="1920"
     inkscape:window-height="1009"
     inkscape:window-x="-8"
     inkscape:window-y="-8"
     inkscape:window-maximized="1"
     inkscape:current-layer="svg1" />
  <path
     fill-rule="evenodd"
     d="M2 2a2 2 0 0 0-2 2v8a2 2 0 0 0 2 2h12a2 2 0 0 0 2-2V4a2 2 0 0 0-2-2zM1 4a1 1 0 0 1 1-1h12a1 1 0 0 1 1 1v8a1 1 0 0 1-1 1H2a1 1 0 0 1-1-1zm7.5.5a.5.5 0 0 0-1 0v7a.5.5 0 0 0 1 0zM2 5.5a.5.5 0 0 1 .5-.5H6a.5.5 0 0 1 0 1H2.5a.5.5 0 0 1-.5-.5m0 2a.5.5 0 0 1 .5-.5H6a.5.5 0 0 1 0 1H2.5a.5.5 0 0 1-.5-.5m0 2a.5.5 0 0 1 .5-.5H6a.5.5 0 0 1 0 1H2.5a.5.5 0 0 1-.5-.5M10.5 5a.5.5 0 0 0-.5.5v3a.5.5 0 0 0 .5.5h3a.5.5 0 0 0 .5-.5v-3a.5.5 0 0 0-.5-.5zM13 8h-2V6h2z"
     id="path1"
     style="fill:#babdde;fill-opacity:1" />
</svg>
